PathFileType	4	(X/Y/Z)	 s06c0001.trc
DataRate	CameraRate	NumFrames	NumMarkers	Units	OrigDataRate	OrigDataStartFrame	OrigNumFrames
200	200	4	49	mm	200	251	2000
Frame#	Time	racr			lacr			c7			jug			rlel			rdr			llel			ldr			s2			lic			ric			lasi			rasi			rpsi			lpsi			rgt			lgt			rth1			rth2			rth3			rth4			rlfc			rmfc			rsh1			rsh2			rsh3			rsh4			rlmal			rmmal			rcal			rtoe			rmt5			rmt1			lth1			lth2			lth4			lth3			llfc			lmfc			llmal			lmmal			lcal			lmt1			lmt5			lsh1			lsh2			lsh3			lsh4			ltoe			
		X1	Y1	Z1	X2	Y2	Z2	X3	Y3	Z3	X4	Y4	Z4	X5	Y5	Z5	X6	Y6	Z6	X7	Y7	Z7	X8	Y8	Z8	X9	Y9	Z9	X10	Y10	Z10	X11	Y11	Z11	X12	Y12	Z12	X13	Y13	Z13	X14	Y14	Z14	X15	Y15	Z15	X16	Y16	Z16	X17	Y17	Z17	X18	Y18	Z18	X19	Y19	Z19	X20	Y20	Z20	X21	Y21	Z21	X22	Y22	Z22	X23	Y23	Z23	X24	Y24	Z24	X25	Y25	Z25	X26	Y26	Z26	X27	Y27	Z27	X28	Y28	Z28	X29	Y29	Z29	X30	Y30	Z30	X31	Y31	Z31	X32	Y32	Z32	X33	Y33	Z33	X34	Y34	Z34	X35	Y35	Z35	X36	Y36	Z36	X37	Y37	Z37	X38	Y38	Z38	X39	Y39	Z39	X40	Y40	Z40	X41	Y41	Z41	X42	Y42	Z42	X43	Y43	Z43	X44	Y44	Z44	X45	Y45	Z45	X46	Y46	Z46	X47	Y47	Z47	X48	Y48	Z48	X49	Y49	Z49	
251	1.2550	222.250010	1417.967499	396.530035	224.485671	1428.930827	42.350218	186.284985	1490.046727	216.103060	307.658271	1395.714979	222.944164	242.953475	1200.367487	574.691799	341.852329	1040.591915	765.175596	232.039531	1206.961644	-129.098792	328.279935	1068.987778	-329.538354	113.337827	964.322123	230.369456	265.128930	1007.987609	51.094618	276.260109	987.021926	388.598966	317.946223	955.220109	80.316204	330.608769	945.765078	350.636364	137.289943	998.044092	257.624958	124.097807	994.976434	194.048888	239.785602	871.822175	401.047715	244.005883	896.582321	28.097284	249.334743	749.823670	420.637636	257.877011	660.222133	413.915178	221.775876	582.303641	400.308299	294.409301	655.930920	404.610384	204.517984	473.362130	380.651105	219.699061	450.254233	272.472706	174.005093	353.124678	402.129637	187.889252	267.546977	382.065789	159.515530	186.347557	370.726943	216.387040	269.682992	354.694670	154.640738	99.735717	358.408223	199.753472	121.988598	273.298595	109.507837	65.651460	297.111300	382.081921	75.659332	334.594385	280.642258	43.273340	392.383992	303.894769	59.778978	276.984990	227.524515	764.216654	12.466470	241.765962	677.965234	17.437209	278.048105	674.568720	25.787533	209.551653	595.504338	29.451838	181.155181	477.132537	49.898855	202.512818	455.467105	159.647488	154.471319	99.128411	56.056317	170.930391	121.872216	141.080522	100.945741	58.837192	110.483265	310.704369	52.471770	132.991384	290.022390	51.115441	17.899014	159.049099	370.668026	24.054631	176.589228	285.873391	36.960071	149.559926	201.926811	38.057342	207.331791	286.242640	61.593057	380.323454	71.703320	69.524368	
252	1.2600	222.262330	1417.967757	396.514732	224.515703	1428.926509	42.331958	186.284261	1490.029808	216.124845	307.670912	1395.711443	222.942207	242.970071	1200.365349	574.687451	341.888960	1040.582219	765.146214	232.051630	1206.951383	-129.105153	328.278049	1068.992870	-329.558639	113.354789	964.328066	230.358891	265.158859	1007.997188	51.085332	276.284741	987.022907	388.583445	317.960076	955.223510	80.287593	330.620238	945.758423	350.641996	137.303891	998.045650	257.606649	124.129707	994.968437	194.025765	239.794564	871.812167	401.042669	244.022638	896.588772	28.079604	249.348046	749.815654	420.622743	257.878109	660.221148	413.917622	221.779667	582.294239	400.293664	294.422847	655.919709	404.603050	204.513722	473.353625	380.648029	219.692195	450.249184	272.480273	174.007142	353.098053	402.122707	187.888431	267.549445	382.053730	159.517030	186.349259	370.717988	216.385022	269.687909	354.690560	154.652896	99.731626	358.412357	199.775537	121.995591	273.313763	109.491862	65.658126	297.096591	382.091406	75.668026	334.576927	280.673753	43.256229	392.383218	303.898145	59.795809	276.997718	227.557968	764.214214	12.470375	241.769882	677.954831	17.420451	278.082948	674.566023	25.768481	209.556980	595.499232	29.445252	181.184186	477.131908	49.896159	202.513437	455.478023	159.649218	154.474853	99.134837	56.044846	170.920517	121.884199	141.071898	100.951552	58.849861	110.493194	310.714313	52.468617	132.994695	290.014362	51.117560	17.886809	159.045137	370.666572	24.053846	176.611002	285.857676	36.992169	149.560440	201.937297	38.054820	207.349643	286.241408	61.592801	380.313316	71.693045	69.521226	
253	1.2650	222.279326	1417.967812	396.509266	224.539135	1428.916235	42.320489	186.304469	1490.041286	216.110712	307.695450	1395.702937	222.925186	243.005694	1200.363432	574.692443	341.936015	1040.570281	765.130419	232.051929	1206.962715	-129.120313	328.271587	1069.011893	-329.599626	113.374147	964.326322	230.344282	265.174442	1007.990043	51.077971	276.294117	987.025593	388.589192	317.980991	955.232050	80.287257	330.639361	945.769628	350.639301	137.327332	998.040747	257.587973	124.142238	994.963527	194.009991	239.800541	871.826397	401.040754	244.042149	896.592282	28.064784	249.345650	749.816523	420.619017	257.888498	660.222818	413.902679	221.795811	582.295689	400.285333	294.419358	655.927271	404.602059	204.510927	473.353097	380.658642	219.714840	450.257742	272.471397	174.000835	353.112029	402.117326	187.868045	267.556220	382.047199	159.527364	186.363964	370.710148	216.394877	269.686233	354.697326	154.649543	99.724162	358.410302	199.775087	121.996784	273.314894	109.491854	65.658119	297.096591	382.077476	75.661780	334.582367	280.652928	43.257758	392.379276	303.896409	59.801803	276.997342	227.578152	764.216965	12.454136	241.791281	677.959710	17.408621	278.083750	674.574025	25.750573	209.574400	595.490497	29.453632	181.200576	477.127117	49.894970	202.529180	455.469975	159.621226	154.475139	99.147958	56.051959	170.924588	121.881303	141.078216	100.965347	58.835129	110.490849	310.708595	52.477446	132.987170	290.017944	51.125395	17.893446	159.055862	370.668410	24.044176	176.598433	285.858235	36.991651	149.567170	201.937303	38.068699	207.358580	286.248452	61.591004	380.305856	71.690610	69.523512	
254	1.2700	222.290275	1417.960196	396.497876	224.544369	1428.924167	42.319663	186.317815	1490.037872	216.104528	307.696748	1395.696338	222.905694	243.054911	1200.346028	574.659789	341.967348	1040.569533	765.116200	232.065618	1206.977361	-129.149535	328.265925	1069.013898	-329.619304	113.392662	964.308593	230.337322	265.185235	1007.993421	51.061131	276.297270	987.024128	388.578602	318.003507	955.219716	80.266003	330.656797	945.766984	350.616030	137.352735	998.037091	257.577551	124.168294	994.969192	193.989395	239.807749	871.826023	401.027359	244.061561	896.581289	28.059011	249.370170	749.826919	420.600457	257.903166	660.228707	413.896766	221.810716	582.287019	400.282327	294.422352	655.926973	404.585722	204.517341	473.357377	380.646534	219.706565	450.244137	272.448474	174.006668	353.111113	402.108381	187.871538	267.551117	382.040449	159.520468	186.354747	370.711474	216.395018	269.690504	354.701007	154.642954	99.744563	358.412512	199.776503	121.994498	273.314525	109.507070	65.666972	297.117998	382.071583	75.652126	334.586992	280.640438	43.275351	392.380722	303.888021	59.789257	276.999893	227.583199	764.234867	12.442520	241.801525	677.961906	17.403097	278.091421	674.572778	25.709318	209.566767	595.515278	29.426517	181.183013	477.132854	49.888655	202.518071	455.478917	159.625165	154.493234	99.122580	56.052329	170.928202	121.873615	141.064366	100.953012	58.853039	110.475986	310.722432	52.474140	132.994888	290.025855	51.108960	17.895089	159.060225	370.666953	24.042013	176.597492	285.884532	36.986821	149.570215	201.943163	38.061686	207.352289	286.246738	61.572534	380.320404	71.701638	69.529484	
